<?xml version="1.0" standalone="no"?>
<svg xmlns:xlink="http://www.w3.org/1999/xlink" id="wave" style="transform:rotate(180deg); transition: 0.3s" viewBox="0 0 1440 490" version="1.1" xmlns="http://www.w3.org/2000/svg"><defs><linearGradient id="sw-gradient-0" x1="0" x2="0" y1="1" y2="0"><stop stop-color="rgba(44, 32, 121, 1)" offset="0%"/><stop stop-color="rgba(44, 32, 121, 1)" offset="100%"/></linearGradient></defs><path style="transform:translate(0, 0px); opacity:1" fill="url(#sw-gradient-0)" d="M0,441L120,392C240,343,480,245,720,187.8C960,131,1200,114,1440,98C1680,82,1920,65,2160,49C2400,33,2640,16,2880,65.3C3120,114,3360,229,3600,261.3C3840,294,4080,245,4320,253.2C4560,261,4800,327,5040,334.8C5280,343,5520,294,5760,245C6000,196,6240,147,6480,147C6720,147,6960,196,7200,187.8C7440,180,7680,114,7920,73.5C8160,33,8400,16,8640,49C8880,82,9120,163,9360,228.7C9600,294,9840,343,10080,326.7C10320,310,10560,229,10800,179.7C11040,131,11280,114,11520,155.2C11760,196,12000,294,12240,310.3C12480,327,12720,261,12960,220.5C13200,180,13440,163,13680,187.8C13920,212,14160,278,14400,253.2C14640,229,14880,114,15120,114.3C15360,114,15600,229,15840,269.5C16080,310,16320,278,16560,220.5C16800,163,17040,82,17160,40.8L17280,0L17280,490L17160,490C17040,490,16800,490,16560,490C16320,490,16080,490,15840,490C15600,490,15360,490,15120,490C14880,490,14640,490,14400,490C14160,490,13920,490,13680,490C13440,490,13200,490,12960,490C12720,490,12480,490,12240,490C12000,490,11760,490,11520,490C11280,490,11040,490,10800,490C10560,490,10320,490,10080,490C9840,490,9600,490,9360,490C9120,490,8880,490,8640,490C8400,490,8160,490,7920,490C7680,490,7440,490,7200,490C6960,490,6720,490,6480,490C6240,490,6000,490,5760,490C5520,490,5280,490,5040,490C4800,490,4560,490,4320,490C4080,490,3840,490,3600,490C3360,490,3120,490,2880,490C2640,490,2400,490,2160,490C1920,490,1680,490,1440,490C1200,490,960,490,720,490C480,490,240,490,120,490L0,490Z"/></svg>